<svg width="750" height="500" viewBox="0 0 750 500" fill="none" xmlns="http://www.w3.org/2000/svg">
<g clip-path="url(#clip0_1909_186)">
<path d="M750 0H0V500H750V0Z" fill="#111827"/>
<path d="M42.579 283.981C-0.878784 389.638 130.102 492.55 383.858 467.077C637.613 441.605 768.734 286.114 689.194 182.361C627.827 102.313 514.214 124.914 383.858 197.319C292.487 248.072 91.4861 165.075 42.579 283.981Z" fill="#0B3C84"/>
<path d="M63.2044 145.429C45.9961 145.429 39.2606 133.373 46.902 127.428C54.5435 121.484 61.3369 134.561 63.2044 123.353C65.0719 112.144 66.2605 104.842 76.11 105.692C85.9596 106.541 88.1665 103.824 86.8087 96.8616C85.4498 89.899 90.3746 75.9739 105.828 76.6539C121.281 77.3328 118.055 94.3152 124.168 95.5038C130.281 96.6924 133.508 86.8429 143.526 90.0693C153.545 93.2957 145.541 107.317 154.565 111.03C163.055 114.523 161.527 101.278 180.886 103.824C187.744 104.727 191.768 108.613 194.105 113.256C195.713 116.452 199.483 117.958 202.877 116.823C205.724 115.87 209.369 115.506 213.49 117.069C223.34 120.805 229.114 145.428 197.527 145.428C165.941 145.428 76.11 145.429 63.2044 145.429Z" fill="#0B3C84"/>
<path d="M473.514 96.5105C456.986 96.5105 449.542 90.7252 452.344 82.8125C456.193 71.9446 464.718 81.0449 469.975 77.8366C475.551 74.4342 469.098 70.4722 474.646 64.3588C480.193 58.2454 488.344 63.3393 494.797 62.321C501.249 61.3027 501.363 53.7169 500.344 46.0187C499.324 38.3205 509.401 28.3574 523.325 35.4902C530.025 38.9221 531.667 46.6794 531.567 53.8054C531.499 58.6189 536.221 62.1076 540.745 60.4603C542.805 59.711 544.779 59.543 546.307 60.5103C551.854 64.0194 548.458 71.9446 552.76 74.0959C557.061 76.2473 558.384 69.606 569.401 69.4539C585.817 69.2268 592.723 96.5117 569.401 96.5117C546.082 96.5105 489.93 96.5105 473.514 96.5105Z" fill="#0B3C84"/>
<path d="M584.104 177.254L241.753 35.4746C241.753 35.4746 102.244 112.082 170.006 375.884L584.104 328.298V177.254Z" fill="url(#paint0_linear_1909_186)"/>
<path d="M292.235 296.911L307.748 276.626L311.24 266.958C302.486 259.93 289.638 252.144 272.918 246.616L256.285 247.201L241.291 239.932C223.704 238.048 207.09 239.05 192.713 241.878L187.38 261.441L193.976 276.431L191.046 279.562L202.654 288.958C208.527 328.106 194.368 363.142 194.368 363.142C194.368 363.142 216.095 380.171 252.305 379.388C288.516 378.604 296.737 358.836 296.737 358.836C286.951 321.254 292.235 296.911 292.235 296.911Z" fill="#6CA8BB"/>
<path d="M291.113 306.136L259.378 298.868L227.803 295.67C227.803 295.67 227.166 295.631 226.248 295.606C225.059 271.44 220.573 257.378 220.573 257.378C220.573 257.378 224.755 246.307 243.352 245.734L243.45 240.977L241.291 239.93C223.704 238.046 207.09 239.048 192.713 241.877L187.38 261.44L193.976 276.43L191.046 279.561L202.654 288.957C208.527 328.105 194.368 363.141 194.368 363.141C194.368 363.141 202.795 369.742 217.893 374.536C217.977 374.213 218.068 373.917 218.149 373.586C223.936 350.381 226.121 329.747 226.478 312.527C227.442 313.637 228.555 315.089 229.794 317.009C234.071 323.641 241.985 320.906 246.476 313.906C246.476 313.906 255.59 314.883 262.284 313.121C262.284 313.121 274.653 322.057 291.031 323.062C290.661 316.144 290.811 310.438 291.113 306.136Z" fill="#438291"/>
<path d="M202.654 288.957C208.527 328.104 194.368 363.141 194.368 363.141" stroke="#1C0000" stroke-miterlimit="10" stroke-linecap="round" stroke-linejoin="round"/>
<path d="M206.668 414.943C199.83 416.21 171.435 418.485 169.541 407.746C167.647 397.006 189.865 392.796 203.369 395.185L208.388 402.779L206.668 414.943Z" fill="#1C0000"/>
<path d="M212.732 414.16L206.668 414.942L203.368 395.185L208.345 394.642L215.966 398.052L212.732 414.16Z" fill="#B2ADAF"/>
<path d="M208.345 394.642L212.732 414.161C212.732 414.161 296.644 415.373 324.886 392.449C353.127 369.525 336.838 349.919 307.515 351.103C278.193 352.288 208.345 394.642 208.345 394.642Z" fill="#1556BF"/>
<path d="M212.732 414.16C212.732 414.16 293.561 415.325 323.255 393.694C292.991 384.856 285.092 364.418 283.195 357.07C250.617 369.012 208.345 394.643 208.345 394.643L212.732 414.16Z" fill="#022B71"/>
<path d="M307.515 351.103C292.652 351.703 267.378 362.881 246.065 373.759" stroke="#1C0000" stroke-miterlimit="10" stroke-linecap="round" stroke-linejoin="round"/>
<path d="M208.363 268.309C204.057 268.896 197.989 276.725 193.977 285.435C189.965 294.145 191.042 303.149 195.054 305.008C199.066 306.868 203.666 300.506 212.964 301.387C222.261 302.268 227.546 305.79 231.656 313.718C235.766 321.645 250.055 314.945 251.229 296.912C252.402 278.878 244.197 274.473 238.22 275.159C232.243 275.843 228.545 277.521 222.847 275.256C215.214 272.223 217.09 267.118 208.363 268.309Z" fill="#1C0000"/>
<path d="M299.869 389.956C299.869 389.956 339.995 396.317 338.33 410.802C336.667 425.287 293.801 410.018 293.801 410.018L292.822 399.84L299.869 389.956Z" fill="#1C0000"/>
<path d="M293.801 387.216L299.869 389.956L293.801 410.019L285.776 407.572L293.801 387.216Z" fill="white"/>
<path d="M293.801 387.216L285.971 417.163C285.971 417.163 213.745 412.857 179.296 400.134C144.847 387.411 157.961 369.796 168.139 362.554C178.317 355.312 203.959 358.835 234.493 364.511C265.027 370.187 293.801 387.216 293.801 387.216Z" fill="#022B71"/>
<path d="M285.972 417.164L293.802 387.217C293.802 387.217 265.029 370.188 234.495 364.511C230.012 363.678 225.638 362.893 221.399 362.18C221.399 362.18 247.136 377.542 242.254 413.019C266.111 415.979 285.972 417.164 285.972 417.164Z" fill="#1556BF"/>
<path d="M285.972 417.163C285.972 417.163 213.746 412.857 179.297 400.134C144.848 387.412 157.962 369.796 168.14 362.554C169.631 361.493 171.452 360.664 173.572 360.038" stroke="#1C0000" stroke-miterlimit="10" stroke-linecap="round" stroke-linejoin="round"/>
<path d="M250.739 231.803C250.739 231.803 234.689 223.191 231.362 197.745C230.232 189.109 232.53 180.834 236.058 173.67C236.058 173.67 225.358 164.927 226.729 161.469C228.099 158.011 238.219 162.186 238.219 162.186C238.219 162.186 233.514 155.727 235.928 153.835C238.341 151.943 243.594 158.272 243.594 158.272C243.594 158.272 240.364 145.419 244.801 142.939C249.237 140.46 253.935 149.986 253.935 149.986C253.935 149.986 268.941 132.109 293.213 136.023C317.484 139.938 327.401 163.687 340.972 167.732C340.972 167.732 339.896 170.929 337.107 172.984C337.107 172.984 341.756 174.647 339.602 179.834C337.449 185.021 330.243 191.469 318.92 188.805L250.739 231.803Z" fill="#FF6C86"/>
<path d="M293.214 136.024C268.943 132.11 253.936 149.987 253.936 149.987C253.936 149.987 249.239 140.461 244.802 142.94C240.365 145.42 243.595 158.273 243.595 158.273C243.595 158.273 238.342 151.944 235.929 153.836C233.515 155.729 238.219 162.187 238.219 162.187C238.219 162.187 228.099 158.012 226.729 161.47C225.358 164.928 236.058 173.671 236.058 173.671C232.53 180.835 230.232 189.11 231.362 197.746C234.689 223.192 250.739 231.804 250.739 231.804L252.602 230.629C253.222 223.436 254.493 213.565 257.105 203.327C257.882 200.279 258.72 197.208 259.84 194.314C259.84 194.314 265.8 190.992 266.655 179.657C266.655 179.657 280.628 175.878 285.762 158.695C285.762 158.695 303.113 159.228 306.098 140.395C302.272 138.365 298.029 136.801 293.214 136.024Z" fill="#DB3156"/>
<path d="M247.02 246.308L251.523 207.532C251.523 207.532 236.94 208.315 238.311 194.32C239.681 180.324 254.564 182.282 257.105 188.938C259.646 195.593 262.191 197.55 265.518 192.559C268.846 187.569 269.727 180.423 269.727 180.423C269.727 180.423 275.892 184.534 277.947 184.436C280.002 184.339 280.59 177.39 280.59 177.39C280.59 177.39 285.972 183.653 289.104 183.36C292.237 183.066 296.053 176.509 296.053 176.509C296.053 176.509 298.207 185.023 303.198 186.099C308.188 187.176 312.593 184.24 312.593 184.24C312.593 184.24 314.158 187.698 318.922 188.807C318.922 188.807 322.445 210.142 313.963 227.367C305.482 244.592 282.254 244.332 267.769 238.067L266.073 249.942L247.02 246.308Z" fill="#F1B39C"/>
<path d="M298.761 207.662C299.943 207.751 298.753 216.279 297.355 217.598C297.355 217.598 295.244 217.3 294.768 215.779C294.294 214.258 297.002 207.53 298.761 207.662Z" fill="#D68C7B"/>
<path d="M254.458 252.297C263.104 253.943 269.329 250.008 272.919 246.616C267.097 244.692 260.818 243.034 254.068 241.785C249.764 240.99 245.501 240.383 241.292 239.932C241.652 243.303 243.72 250.252 254.458 252.297Z" fill="#F1B39C"/>
<path d="M257.105 188.937C254.564 182.283 239.681 180.325 238.311 194.32C236.94 208.315 251.523 207.532 251.523 207.532L247.665 240.763C245.529 240.447 243.4 240.158 241.292 239.932C241.451 241.415 241.941 243.59 243.353 245.736C245.387 245.711 248.665 245.067 252.013 241.879C252.013 241.879 252.013 241.84 252.013 241.811C252.013 241.792 252.013 241.76 252.013 241.732C252.013 241.686 252.014 241.619 252.015 241.552C252.043 239.034 252.4 221.773 257.106 203.327C257.884 200.279 258.721 197.208 259.841 194.314C259.841 194.314 259.884 194.289 259.945 194.249C258.971 193.183 258.038 191.381 257.105 188.937Z" fill="#D68C7B"/>
<path d="M274.049 218.689C274.049 218.689 268.356 225.882 272.516 229.699C276.676 233.516 282.218 223.748 282.218 223.748" fill="#FF6C86"/>
<path d="M292.235 226.454C292.235 226.454 281.983 225.931 272.919 217.711" stroke="#1C0000" stroke-miterlimit="10" stroke-linecap="round" stroke-linejoin="round"/>
<path d="M274.049 218.689C274.049 218.689 268.356 225.882 272.516 229.699C276.676 233.516 282.218 223.748 282.218 223.748" stroke="#1C0000" stroke-miterlimit="10" stroke-linecap="round" stroke-linejoin="round"/>
<path d="M277.983 221.517C277.983 221.517 275.647 224.511 274.766 227.007" stroke="#1C0000" stroke-miterlimit="10" stroke-linecap="round" stroke-linejoin="round"/>
<path d="M285.114 202.713C285.557 201.726 285.488 200.735 284.962 200.5C284.436 200.264 283.65 200.872 283.209 201.859C282.766 202.846 282.834 203.837 283.361 204.072C283.887 204.308 284.672 203.699 285.114 202.713Z" fill="#1C0000"/>
<path d="M313.775 208.906C314.217 207.92 314.149 206.929 313.623 206.692C313.097 206.456 312.311 207.065 311.87 208.051C311.427 209.038 311.495 210.029 312.022 210.264C312.547 210.501 313.333 209.893 313.775 208.906Z" fill="#1C0000"/>
<path d="M302.284 207.662C302.284 207.662 301.827 215.508 301.044 217.367C300.261 219.227 296.884 217.367 296.884 217.367" stroke="#1C0000" stroke-miterlimit="10" stroke-linecap="round" stroke-linejoin="round"/>
<path d="M280.491 190.895C280.491 190.895 288.027 191.481 294.095 197.746" stroke="#1C0000" stroke-miterlimit="10" stroke-linecap="round" stroke-linejoin="round"/>
<path d="M309.949 201.072C309.949 201.072 313.879 197.157 319.645 201.072" stroke="#1C0000" stroke-miterlimit="10" stroke-linecap="round" stroke-linejoin="round"/>
<path d="M243.595 195.691L252.012 193.146" stroke="#1C0000" stroke-miterlimit="10" stroke-linecap="round" stroke-linejoin="round"/>
<path d="M267.768 238.067C262.435 235.375 257.932 231.461 257.932 231.461C257.932 231.461 257.729 241.224 266.813 244.749L267.768 238.067Z" fill="#D68C7B"/>
<path d="M251.523 207.532L247.665 240.764C245.529 240.447 243.4 240.158 241.292 239.933" stroke="#1C0000" stroke-miterlimit="10" stroke-linecap="round" stroke-linejoin="round"/>
<path d="M256.65 188.001C253.148 182.13 239.614 181.006 238.311 194.32C237.626 201.318 240.928 204.62 244.402 206.175" stroke="#1C0000" stroke-miterlimit="10" stroke-linecap="round" stroke-linejoin="round"/>
<path d="M293.214 136.024C268.943 132.11 253.936 149.987 253.936 149.987C253.936 149.987 249.239 140.461 244.802 142.94C240.365 145.42 243.595 158.273 243.595 158.273C243.595 158.273 238.342 151.944 235.929 153.836C233.515 155.729 238.219 162.187 238.219 162.187C238.219 162.187 228.099 158.012 226.729 161.47C225.358 164.928 236.058 173.671 236.058 173.671C232.53 180.835 230.232 189.11 231.362 197.746C233.973 217.715 244.421 227.317 248.796 230.526" stroke="#1C0000" stroke-miterlimit="10" stroke-linecap="round" stroke-linejoin="round"/>
<path d="M219.775 298.868C219.775 298.868 208.626 312.358 211.85 348.976C215.074 385.594 244.022 397.195 289.547 382.612C335.072 368.028 371.938 403.344 395.937 403.5" stroke="#1C0000" stroke-miterlimit="10" stroke-linecap="round" stroke-linejoin="round"/>
<path d="M311.24 266.958C298.713 273.983 294.003 285.786 294.003 285.786C294.003 285.786 293.221 288.957 292.235 296.911L323.26 279.17C321.146 276.049 317.114 271.674 311.24 266.958Z" fill="#F1B39C"/>
<path d="M301.173 283.085C301.173 283.085 278.435 292.089 267.083 293.557C267.083 293.557 255.387 290.816 252.549 289.495C249.711 288.173 244.573 284.699 242.713 286.461C240.854 288.223 251.668 294.389 251.668 294.389C251.668 294.389 239.19 291.648 238.651 294.389C238.143 296.981 251.276 300.016 251.276 300.016C251.276 300.016 239.195 298.989 238.63 301.533C238.064 304.077 250.395 304.665 250.395 304.665C250.395 304.665 240.71 305.128 241 306.868C241.44 309.511 256.072 310.098 262.629 309.511C262.629 309.511 296.54 320.179 312.982 310.783C329.424 301.388 328.543 288.372 323.259 279.172L301.173 283.085Z" fill="#F1B39C"/>
<path d="M301.173 283.086C301.173 283.086 278.435 292.09 267.083 293.558C267.083 293.558 255.387 290.817 252.549 289.496C249.711 288.174 244.573 284.7 242.713 286.462C240.854 288.224 251.668 294.39 251.668 294.39C251.668 294.39 239.19 291.649 238.651 294.39C238.143 296.982 251.276 300.017 251.276 300.017C251.276 300.017 239.195 298.99 238.63 301.534C238.064 304.078 250.395 304.666 250.395 304.666C250.395 304.666 240.71 305.129 241 306.869C241.44 309.511 256.072 310.098 262.629 309.511C262.629 309.511 290.276 318.209 307.748 312.981" stroke="#1C0000" stroke-miterlimit="10" stroke-linecap="round" stroke-linejoin="round"/>
<path d="M191.046 279.562L193.976 276.431L192.713 241.878C179.222 244.531 167.703 248.792 159.221 253.8L191.046 279.562Z" fill="#D68C7B"/>
<path d="M156.983 255.927C152.563 262.372 156.28 268.544 160.897 274.604C169.248 285.565 191.138 291.013 191.138 291.013C191.138 291.013 198.413 297.114 199.718 295.352C201.023 293.59 193.65 287.718 193.65 287.718C193.65 287.718 205.525 293.917 207.091 291.371C208.656 288.827 195.216 283.216 195.216 283.216C195.216 283.216 208.592 288.37 209.961 285.565C211.331 282.759 197.368 278.387 197.368 278.387C197.368 278.387 210.678 280.801 211.787 278.126C212.897 275.452 198.608 272.842 198.608 272.842C198.608 272.842 192.345 263.643 181.253 257.378C170.162 251.116 160.6 250.653 156.983 255.927Z" fill="#D68C7B"/>
<path d="M207.091 291.373C208.657 288.829 195.216 283.217 195.216 283.217C195.216 283.217 208.59 288.371 209.961 285.566C211.331 282.761 197.368 278.389 197.368 278.389C197.368 278.389 210.678 280.802 211.787 278.128C212.897 275.453 198.608 272.843 198.608 272.843C198.608 272.843 197.209 270.802 194.593 267.999C192.478 272.027 185.943 279.288 166.225 279.763C176.128 287.273 191.138 291.014 191.138 291.014C191.138 291.014 198.413 297.115 199.718 295.353C201.023 293.591 193.65 287.72 193.65 287.72C193.65 287.72 205.525 293.917 207.091 291.373Z" fill="#F1B39C"/>
<path d="M160.897 274.604C169.248 285.565 191.138 291.013 191.138 291.013C191.138 291.013 198.413 297.114 199.718 295.352C201.023 293.59 193.65 287.719 193.65 287.719C193.65 287.719 205.525 293.917 207.091 291.372C208.656 288.828 195.216 283.216 195.216 283.216C195.216 283.216 208.592 288.37 209.961 285.565C211.331 282.76 197.368 278.388 197.368 278.388C197.368 278.388 210.678 280.802 211.787 278.127C212.897 275.452 198.608 272.842 198.608 272.842C198.608 272.842 192.345 263.643 181.253 257.379" stroke="#1C0000" stroke-miterlimit="10" stroke-linecap="round" stroke-linejoin="round"/>
<path d="M236.359 239.476C220.6 238.252 205.739 239.316 192.713 241.878C179.222 244.531 167.703 248.792 159.221 253.801" stroke="#1C0000" stroke-miterlimit="10" stroke-linecap="round" stroke-linejoin="round"/>
<path d="M425.541 169.629C425.541 168.097 424.299 166.855 422.768 166.855C421.236 166.855 419.994 168.097 419.994 169.629C419.994 171.16 421.236 172.402 422.768 172.402C424.299 172.402 425.541 171.162 425.541 169.629Z" stroke="#849CF4" stroke-miterlimit="10" stroke-linejoin="round"/>
<path d="M440.712 169.629C440.712 168.097 439.47 166.855 437.938 166.855C436.407 166.855 435.165 168.097 435.165 169.629C435.165 171.16 436.407 172.402 437.938 172.402C439.47 172.403 440.712 171.162 440.712 169.629Z" stroke="#849CF4" stroke-miterlimit="10" stroke-linejoin="round"/>
<path d="M455.882 169.629C455.882 168.097 454.64 166.855 453.109 166.855C451.577 166.855 450.335 168.097 450.335 169.629C450.335 171.16 451.577 172.402 453.109 172.402C454.64 172.403 455.882 171.162 455.882 169.629Z" stroke="#849CF4" stroke-miterlimit="10" stroke-linejoin="round"/>
<path d="M367.949 79.2151L356.01 97.1023L334.564 95.4936L346.503 77.6064L367.949 79.2151Z" stroke="#849CF4" stroke-miterlimit="10" stroke-linejoin="round"/>
<path d="M334.564 95.4941L343.491 113.806L364.939 115.415L356.01 97.1028L334.564 95.4941Z" stroke="#849CF4" stroke-miterlimit="10" stroke-linejoin="round"/>
<path d="M367.949 79.2158L356.01 97.103L364.939 115.415L376.878 97.5264L367.949 79.2158Z" stroke="#849CF4" stroke-miterlimit="10" stroke-linejoin="round"/>
<path d="M667.317 259.162L646.515 253.698L641.051 232.896L661.853 238.36L667.317 259.162Z" stroke="#21DAAF" stroke-miterlimit="10" stroke-linecap="round" stroke-linejoin="round"/>
<path d="M641.051 232.896L626.646 247.302L632.11 268.103L646.515 253.698L641.051 232.896Z" stroke="#21DAAF" stroke-miterlimit="10" stroke-linecap="round" stroke-linejoin="round"/>
<path d="M667.317 259.162L646.515 253.698L632.11 268.104L652.91 273.568L667.317 259.162Z" stroke="#21DAAF" stroke-miterlimit="10" stroke-linecap="round" stroke-linejoin="round"/>
<path d="M422.768 49.6806L439.41 55.0015L450.73 46.7368L434.316 25L422.768 49.6806Z" stroke="#21DAAF" stroke-miterlimit="10" stroke-linecap="round" stroke-linejoin="round"/>
<path d="M437.372 73.3421L422.768 49.681L439.41 55.002L450.73 46.7373L437.372 73.3421Z" stroke="#21DAAF" stroke-miterlimit="10" stroke-linecap="round" stroke-linejoin="round"/>
<path d="M434.316 25L439.41 55.0015L437.372 73.3417" stroke="#21DAAF" stroke-miterlimit="10" stroke-linecap="round" stroke-linejoin="round"/>
<path d="M682.148 395.655C684.932 392.869 682.89 386.311 677.585 381.006C672.28 375.701 665.72 373.657 662.936 376.443C660.151 379.228 662.193 385.787 667.498 391.093C672.803 396.398 679.363 398.44 682.148 395.655Z" stroke="#FF6C86" stroke-miterlimit="10" stroke-linecap="round" stroke-linejoin="round"/>
<path d="M683.143 393.966L696.664 361.927L664.624 375.448" stroke="#FF6C86" stroke-miterlimit="10" stroke-linecap="round" stroke-linejoin="round"/>
<path d="M150.244 209.532C147.459 206.748 140.899 208.79 135.594 214.095C130.289 219.4 128.246 225.96 131.032 228.745C133.817 231.53 140.376 229.487 145.681 224.182C150.986 218.877 153.029 212.318 150.244 209.532Z" stroke="#28BFEC" stroke-miterlimit="10" stroke-linecap="round" stroke-linejoin="round"/>
<path d="M148.554 208.538L116.515 195.017L130.035 227.056" stroke="#28BFEC" stroke-miterlimit="10" stroke-linecap="round" stroke-linejoin="round"/>
<path d="M616.122 109.341C613.336 112.125 615.38 118.685 620.685 123.99C625.99 129.295 632.549 131.339 635.334 128.553C638.119 125.768 636.076 119.208 630.771 113.903C625.466 108.598 618.908 106.555 616.122 109.341Z" stroke="white" stroke-miterlimit="10" stroke-linecap="round" stroke-linejoin="round"/>
<path d="M615.126 111.028L601.606 143.069L633.646 129.548" stroke="white" stroke-miterlimit="10" stroke-linecap="round" stroke-linejoin="round"/>
<path d="M222.652 35.8463L202.991 62.8178L204.08 25L222.652 35.8463Z" stroke="white" stroke-miterlimit="10" stroke-linecap="round" stroke-linejoin="round"/>
<path d="M185.508 35.8463L202.991 62.8178L204.08 25L185.508 35.8463Z" stroke="white" stroke-miterlimit="10" stroke-linecap="round" stroke-linejoin="round"/>
<path d="M105.967 361.272L100.797 328.299L126.769 355.81L105.967 361.272Z" stroke="#21DAAF" stroke-miterlimit="10" stroke-linecap="round" stroke-linejoin="round"/>
<path d="M132.233 335.008L100.797 328.299L126.769 355.81L132.233 335.008Z" stroke="#21DAAF" stroke-miterlimit="10" stroke-linecap="round" stroke-linejoin="round"/>
<path d="M358.683 308.404C365.163 306.874 369.176 300.38 367.646 293.9C366.116 287.42 359.622 283.407 353.142 284.937C346.662 286.468 342.649 292.961 344.179 299.441C345.709 305.922 352.203 309.934 358.683 308.404Z" stroke="white" stroke-miterlimit="10" stroke-linecap="round" stroke-linejoin="round"/>
<path d="M367.957 297.348C364.171 298.604 360.124 299.284 355.917 299.284C351.704 299.284 347.65 298.602 343.859 297.343" stroke="white" stroke-miterlimit="10" stroke-linecap="round" stroke-linejoin="round"/>
<path d="M27.8751 163.878C23.1671 159.17 15.5336 159.17 10.8246 163.878C6.11666 168.586 6.11666 176.219 10.8246 180.928C15.5325 185.636 23.166 185.636 27.8751 180.928C32.583 176.219 32.583 168.586 27.8751 163.878Z" stroke="#FF6C86" stroke-miterlimit="10" stroke-linecap="round" stroke-linejoin="round"/>
<path d="M28.3167 164.341C26.5275 167.906 24.1469 171.249 21.1714 174.223C18.1924 177.202 14.8434 179.587 11.273 181.377" stroke="#FF6C86" stroke-miterlimit="10" stroke-linecap="round" stroke-linejoin="round"/>
<path d="M47.388 283.98C47.388 281.324 45.2344 279.17 42.5779 279.17C39.9214 279.17 37.7678 281.324 37.7678 283.98C37.7678 286.637 39.9214 288.79 42.5779 288.79C45.2355 288.79 47.388 286.637 47.388 283.98Z" stroke="#FF6C86" stroke-miterlimit="10" stroke-linecap="round" stroke-linejoin="round"/>
<path d="M137.345 64.7759C137.345 62.1194 135.191 59.9658 132.535 59.9658C129.878 59.9658 127.725 62.1194 127.725 64.7759C127.725 67.4324 129.878 69.586 132.535 69.586C135.191 69.5849 137.345 67.4324 137.345 64.7759Z" stroke="#FF6C86" stroke-miterlimit="10" stroke-linecap="round" stroke-linejoin="round"/>
<path d="M738.612 253.424C741.269 253.424 743.422 251.27 743.422 248.614C743.422 245.957 741.269 243.804 738.612 243.804C735.956 243.804 733.802 245.957 733.802 248.614C733.802 251.27 735.956 253.424 738.612 253.424Z" stroke="#FF6C86" stroke-miterlimit="10" stroke-linecap="round" stroke-linejoin="round"/>
<path d="M322.409 34.5858C322.409 32.1745 320.456 30.2207 318.044 30.2207C315.633 30.2207 313.679 32.1756 313.679 34.5858C313.679 36.9971 315.634 38.9509 318.044 38.9509C320.455 38.9509 322.409 36.9971 322.409 34.5858Z" stroke="white" stroke-miterlimit="10" stroke-linecap="round" stroke-linejoin="round"/>
<path d="M47.388 419.885C47.388 417.229 45.2344 415.075 42.5779 415.075C39.9214 415.075 37.7678 417.229 37.7678 419.885C37.7678 422.542 39.9214 424.695 42.5779 424.695C45.2355 424.695 47.388 422.542 47.388 419.885Z" stroke="white" stroke-miterlimit="10" stroke-linecap="round" stroke-linejoin="round"/>
<path d="M701.473 135.463C701.473 132.807 699.32 130.653 696.663 130.653C694.007 130.653 691.853 132.807 691.853 135.463C691.853 138.12 694.007 140.274 696.663 140.274C699.321 140.274 701.473 138.12 701.473 135.463Z" stroke="white" stroke-miterlimit="10" stroke-linecap="round" stroke-linejoin="round"/>
<path d="M611.87 361.272C611.87 358.616 609.717 356.462 607.06 356.462C604.404 356.462 602.25 358.616 602.25 361.272C602.25 363.929 604.404 366.082 607.06 366.082C609.717 366.082 611.87 363.929 611.87 361.272Z" stroke="white" stroke-miterlimit="10" stroke-linecap="round" stroke-linejoin="round"/>
<path d="M355.72 452.819C358.377 452.819 360.53 450.666 360.53 448.009C360.53 445.353 358.377 443.199 355.72 443.199C353.064 443.199 350.91 445.353 350.91 448.009C350.91 450.666 353.064 452.819 355.72 452.819Z" stroke="#21DAAF" stroke-miterlimit="10" stroke-linecap="round" stroke-linejoin="round"/>
<path d="M611.87 35.4751C611.87 32.8186 609.717 30.665 607.06 30.665C604.404 30.665 602.25 32.8186 602.25 35.4751C602.25 38.1317 604.404 40.2852 607.06 40.2852C609.717 40.2852 611.87 38.1317 611.87 35.4751Z" stroke="#21DAAF" stroke-miterlimit="10" stroke-linecap="round" stroke-linejoin="round"/>
<path d="M631.456 190.894C631.456 188.238 629.302 186.084 626.646 186.084C623.989 186.084 621.836 188.238 621.836 190.894C621.836 193.551 623.989 195.704 626.646 195.704C629.302 195.704 631.456 193.551 631.456 190.894Z" stroke="#21DAAF" stroke-miterlimit="10" stroke-linecap="round" stroke-linejoin="round"/>
<path d="M516.796 118.745L519.127 121.076" stroke="#FF6C86" stroke-miterlimit="10" stroke-linecap="round" stroke-linejoin="round"/>
<path d="M522.757 124.707L525.088 127.038" stroke="#FF6C86" stroke-miterlimit="10" stroke-linecap="round" stroke-linejoin="round"/>
<path d="M516.796 127.038L519.127 124.707" stroke="#FF6C86" stroke-miterlimit="10" stroke-linecap="round" stroke-linejoin="round"/>
<path d="M522.757 121.076L525.088 118.745" stroke="#FF6C86" stroke-miterlimit="10" stroke-linecap="round" stroke-linejoin="round"/>
<path d="M642.368 65.4395L644.699 67.7701" stroke="#DACC37" stroke-miterlimit="10" stroke-linecap="round" stroke-linejoin="round"/>
<path d="M648.33 71.4004L650.661 73.7311" stroke="#DACC37" stroke-miterlimit="10" stroke-linecap="round" stroke-linejoin="round"/>
<path d="M642.368 73.7311L644.699 71.4004" stroke="#DACC37" stroke-miterlimit="10" stroke-linecap="round" stroke-linejoin="round"/>
<path d="M648.33 67.7701L650.661 65.4395" stroke="#DACC37" stroke-miterlimit="10" stroke-linecap="round" stroke-linejoin="round"/>
<path d="M112.369 411.909L114.7 414.239" stroke="#DACC37" stroke-miterlimit="10" stroke-linecap="round" stroke-linejoin="round"/>
<path d="M118.33 417.87L120.661 420.201" stroke="#DACC37" stroke-miterlimit="10" stroke-linecap="round" stroke-linejoin="round"/>
<path d="M112.369 420.201L114.7 417.87" stroke="#DACC37" stroke-miterlimit="10" stroke-linecap="round" stroke-linejoin="round"/>
<path d="M118.33 414.239L120.661 411.909" stroke="#DACC37" stroke-miterlimit="10" stroke-linecap="round" stroke-linejoin="round"/>
<path d="M96.6515 272.379L98.9822 274.71" stroke="#DACC37" stroke-miterlimit="10" stroke-linecap="round" stroke-linejoin="round"/>
<path d="M102.613 278.341L104.943 280.672" stroke="#DACC37" stroke-miterlimit="10" stroke-linecap="round" stroke-linejoin="round"/>
<path d="M96.6515 280.672L98.9822 278.341" stroke="#DACC37" stroke-miterlimit="10" stroke-linecap="round" stroke-linejoin="round"/>
<path d="M102.613 274.71L104.943 272.379" stroke="#DACC37" stroke-miterlimit="10" stroke-linecap="round" stroke-linejoin="round"/>
<path d="M232.213 443.863L234.544 446.193" stroke="white" stroke-miterlimit="10" stroke-linecap="round" stroke-linejoin="round"/>
<path d="M238.174 449.825L240.505 452.156" stroke="white" stroke-miterlimit="10" stroke-linecap="round" stroke-linejoin="round"/>
<path d="M232.213 452.156L234.544 449.825" stroke="white" stroke-miterlimit="10" stroke-linecap="round" stroke-linejoin="round"/>
<path d="M238.174 446.193L240.505 443.863" stroke="white" stroke-miterlimit="10" stroke-linecap="round" stroke-linejoin="round"/>
<path d="M98.4667 122.903L100.797 125.234" stroke="white" stroke-miterlimit="10" stroke-linecap="round" stroke-linejoin="round"/>
<path d="M104.428 128.864L106.759 131.195" stroke="white" stroke-miterlimit="10" stroke-linecap="round" stroke-linejoin="round"/>
<path d="M98.4667 131.195L100.797 128.864" stroke="white" stroke-miterlimit="10" stroke-linecap="round" stroke-linejoin="round"/>
<path d="M104.428 125.234L106.759 122.903" stroke="white" stroke-miterlimit="10" stroke-linecap="round" stroke-linejoin="round"/>
<path d="M660.478 310.3L662.809 312.631" stroke="#28BFEC" stroke-miterlimit="10" stroke-linecap="round" stroke-linejoin="round"/>
<path d="M666.439 316.262L668.77 318.592" stroke="#28BFEC" stroke-miterlimit="10" stroke-linecap="round" stroke-linejoin="round"/>
<path d="M660.478 318.592L662.809 316.262" stroke="#28BFEC" stroke-miterlimit="10" stroke-linecap="round" stroke-linejoin="round"/>
<path d="M666.439 312.631L668.77 310.3" stroke="#28BFEC" stroke-miterlimit="10" stroke-linecap="round" stroke-linejoin="round"/>
<path d="M566.982 440.883L569.313 443.214" stroke="#DACC37" stroke-miterlimit="10" stroke-linecap="round" stroke-linejoin="round"/>
<path d="M572.943 446.844L575.274 449.174" stroke="#DACC37" stroke-miterlimit="10" stroke-linecap="round" stroke-linejoin="round"/>
<path d="M566.982 449.174L569.313 446.844" stroke="#DACC37" stroke-miterlimit="10" stroke-linecap="round" stroke-linejoin="round"/>
<path d="M572.943 443.214L575.274 440.883" stroke="#DACC37" stroke-miterlimit="10" stroke-linecap="round" stroke-linejoin="round"/>
<path d="M390.115 167.608C388.612 193.881 385.801 264.369 395.274 312.593C396.228 317.447 399.992 321.253 404.848 322.202C429.754 327.071 509.481 340.813 577.558 332.202C583.305 331.476 587.729 326.786 588.129 321.008C589.841 296.242 593.682 229.487 589.381 180.001C588.894 174.407 584.653 169.868 579.099 169.038C549.837 164.66 458.393 152.052 401.388 156.208C395.296 156.653 390.465 161.509 390.115 167.608Z" fill="#4458CC"/>
<path d="M574.776 187.841L545.659 183.931C542.917 183.564 540.993 181.042 541.36 178.299C541.728 175.558 544.25 173.632 546.993 174.001L576.11 177.911C578.851 178.279 580.776 180.8 580.408 183.543C580.039 186.286 577.517 188.21 574.776 187.841Z" fill="#3A4EC1"/>
<path d="M407.22 311.317C415.933 229.463 404.574 174.58 401.947 163.414C401.653 162.164 400.568 161.262 399.286 161.195C397.758 161.115 396.434 162.237 396.261 163.757C394.7 177.425 388.565 241.058 400.276 311.522C400.546 313.149 401.926 314.367 403.573 314.443C405.421 314.528 407.024 313.156 407.22 311.317Z" fill="#3A4EC1"/>
<path d="M493.581 234.441C455.416 237.876 450.221 307.569 449.529 329.397C471.8 332.289 499.052 334.813 527.018 334.966C528.88 307.191 530.633 231.107 493.581 234.441Z" fill="#3A4EC1"/>
<path d="M578.149 417.164H458.032C453.469 417.164 449.768 413.464 449.768 408.899V393.05C449.768 388.485 453.468 384.785 458.032 384.785H578.149C582.712 384.785 586.413 388.485 586.413 393.05V408.899C586.413 413.464 582.714 417.164 578.149 417.164Z" fill="#616EE1"/>
<path d="M474.448 417.164H399.05C394.485 417.164 390.785 413.464 390.785 408.899V393.05C390.785 388.485 394.485 384.785 399.05 384.785H474.448C479.012 384.785 482.713 388.485 482.713 393.05V408.899C482.713 413.464 479.012 417.164 474.448 417.164Z" fill="#4458CC"/>
<path d="M403.353 390.56C402.29 390.56 401.428 391.421 401.428 392.484V409.465C401.428 410.528 402.29 411.389 403.353 411.389C404.415 411.389 405.277 410.528 405.277 409.465V392.484C405.277 391.421 404.415 390.56 403.353 390.56Z" fill="#616EE1"/>
<path d="M409.919 390.56C408.856 390.56 407.995 391.421 407.995 392.484V409.465C407.995 410.528 408.856 411.389 409.919 411.389C410.981 411.389 411.843 410.528 411.843 409.465V392.484C411.843 391.421 410.981 390.56 409.919 390.56Z" fill="#616EE1"/>
<path d="M416.484 390.56C415.421 390.56 414.56 391.421 414.56 392.484V409.465C414.56 410.528 415.421 411.389 416.484 411.389C417.547 411.389 418.408 410.528 418.408 409.465V392.484C418.41 391.421 417.548 390.56 416.484 390.56Z" fill="#616EE1"/>
<path d="M494.26 295.122C493.717 295.122 493.189 295.178 492.672 295.264C492.155 295.178 491.627 295.122 491.085 295.122C485.77 295.122 481.462 299.43 481.462 304.745V373.662H484.637H500.708H503.883V304.745C503.883 299.43 499.575 295.122 494.26 295.122Z" fill="#3A4EC1"/>
<path d="M496.185 409.465C496.185 408.403 495.323 407.541 494.261 407.541C493.198 407.541 492.336 408.403 492.336 409.465C492.336 410.528 493.198 411.39 494.261 411.39C495.323 411.391 496.185 410.529 496.185 409.465Z" fill="#4458CC"/>
<path d="M505.808 409.465C505.808 408.403 504.946 407.541 503.883 407.541C502.821 407.541 501.959 408.403 501.959 409.465C501.959 410.528 502.821 411.39 503.883 411.39C504.946 411.391 505.808 410.529 505.808 409.465Z" fill="#4458CC"/>
<path d="M515.43 409.465C515.43 408.403 514.568 407.541 513.506 407.541C512.443 407.541 511.581 408.403 511.581 409.465C511.581 410.528 512.443 411.39 513.506 411.39C514.568 411.391 515.43 410.529 515.43 409.465Z" fill="#4458CC"/>
<path d="M566.982 384.785C544.406 372.922 519.891 366.404 494.26 366.404C468.628 366.404 444.113 372.922 421.537 384.785H566.982Z" fill="#3A4EC1"/>
<path d="M503.886 334.332C527.939 335.498 553.477 335.248 577.557 332.203C583.304 331.477 587.728 326.787 588.128 321.008C589.84 296.243 593.681 229.488 589.38 180.002C588.893 174.408 584.651 169.869 579.098 169.039C549.836 164.661 458.392 152.053 401.387 156.209C395.294 156.653 390.464 161.509 390.114 167.609C388.611 193.882 385.8 264.37 395.273 312.594C396.226 317.448 399.991 321.254 404.847 322.203C418.138 324.801 447.044 329.927 481.461 332.833" stroke="#1C0000" stroke-miterlimit="10" stroke-linecap="round" stroke-linejoin="round"/>
<path d="M527.018 334.966C528.88 307.191 530.633 231.107 493.581 234.441C455.416 237.876 450.221 307.569 449.529 329.397" stroke="#1C0000" stroke-miterlimit="10" stroke-linecap="round" stroke-linejoin="round"/>
<path d="M470.41 384.786H578.149C582.712 384.786 586.413 388.486 586.413 393.051V408.9C586.413 413.465 582.713 417.165 578.149 417.165H470.41" stroke="#1C0000" stroke-miterlimit="10" stroke-linecap="round" stroke-linejoin="round"/>
<path d="M474.448 417.164H399.05C394.485 417.164 390.785 413.464 390.785 408.899V393.05C390.785 388.485 394.485 384.785 399.05 384.785H474.448C479.012 384.785 482.713 388.485 482.713 393.05V408.899C482.713 413.464 479.012 417.164 474.448 417.164Z" stroke="#1C0000" stroke-miterlimit="10" stroke-linecap="round" stroke-linejoin="round"/>
<path d="M481.462 304.744V366.95" stroke="#1C0000" stroke-miterlimit="10" stroke-linecap="round" stroke-linejoin="round"/>
<path d="M503.883 366.711V304.745C503.883 299.43 499.575 295.122 494.261 295.122" stroke="#1C0000" stroke-miterlimit="10" stroke-linecap="round" stroke-linejoin="round"/>
<path d="M494.26 366.403C468.628 366.403 444.113 372.921 421.537 384.784H566.981C547.247 374.414 526.031 368.128 503.882 366.71" stroke="#1C0000" stroke-miterlimit="10" stroke-linecap="round" stroke-linejoin="round"/>
<path d="M403.573 314.442C405.421 314.527 407.024 313.156 407.22 311.316C415.934 229.462 404.574 174.579 401.947 163.413C401.653 162.163 400.568 161.261 399.286 161.194" stroke="#1C0000" stroke-miterlimit="10" stroke-linecap="round" stroke-linejoin="round"/>
</g>
<defs>
<linearGradient id="paint0_linear_1909_186" x1="195.856" y1="203.796" x2="564.675" y2="273.073" gradientUnits="userSpaceOnUse">
<stop stop-color="#14F7C2" stop-opacity="0"/>
<stop offset="1" stop-color="#14F7C2"/>
</linearGradient>
<clipPath id="clip0_1909_186">
<rect width="750" height="500" fill="white"/>
</clipPath>
</defs>
</svg>
