<svg width="298" height="48" viewBox="0 0 298 48" fill="none" xmlns="http://www.w3.org/2000/svg">
<path d="M66.0293 27.9238C66.1204 27.9238 66.1888 27.9564 66.2344 28.0215C66.2865 28.0801 66.332 28.1452 66.3711 28.2168C66.4102 28.2819 66.4883 28.4349 66.6055 28.6758C66.7227 28.9102 66.8333 29.1445 66.9375 29.3789C67.0417 29.6068 67.0938 29.7467 67.0938 29.7988C67.0938 29.8965 67.0384 29.9909 66.9277 30.082C66.4655 30.4336 65.8893 30.7005 65.1992 30.8828C64.5091 31.0586 63.8743 31.1465 63.2949 31.1465C61.9277 31.1465 60.7526 30.8372 59.7695 30.2188C58.793 29.6003 58.041 28.7637 57.5137 27.709C56.9928 26.6543 56.7324 25.4694 56.7324 24.1543C56.7324 23.2103 56.8691 22.3184 57.1426 21.4785C57.4225 20.6322 57.8294 19.8867 58.3633 19.2422C58.8971 18.5911 59.5514 18.0833 60.3262 17.7188C61.1074 17.3477 61.9993 17.1621 63.002 17.1621C63.5944 17.1621 64.2259 17.2435 64.8965 17.4062C65.5671 17.569 66.1497 17.8132 66.6445 18.1387C66.7747 18.2233 66.8398 18.321 66.8398 18.4316C66.8398 18.4642 66.8073 18.5586 66.7422 18.7148C66.6836 18.8711 66.612 19.0501 66.5273 19.252C66.4427 19.4473 66.3613 19.6263 66.2832 19.7891C66.2116 19.9518 66.1628 20.0592 66.1367 20.1113C66.1042 20.1764 66.0618 20.2448 66.0098 20.3164C65.9642 20.3815 65.8958 20.4141 65.8047 20.4141C65.7461 20.4141 65.6908 20.401 65.6387 20.375C65.5931 20.3424 65.5443 20.3132 65.4922 20.2871C65.1211 20.0527 64.7435 19.8672 64.3594 19.7305C63.9818 19.5872 63.5684 19.5156 63.1191 19.5156C62.5137 19.5156 61.9733 19.6523 61.498 19.9258C61.0228 20.1927 60.6191 20.5508 60.2871 21C59.9616 21.4492 59.7142 21.9473 59.5449 22.4941C59.3757 23.041 59.291 23.5879 59.291 24.1348C59.291 24.9616 59.4342 25.7298 59.7207 26.4395C60.0137 27.1426 60.4564 27.7122 61.0488 28.1484C61.6413 28.5781 62.3867 28.793 63.2852 28.793C63.7409 28.793 64.1608 28.7311 64.5449 28.6074C64.9355 28.4837 65.3197 28.3014 65.6973 28.0605C65.7493 28.028 65.8014 27.9987 65.8535 27.9727C65.9056 27.9401 65.9642 27.9238 66.0293 27.9238ZM72.4355 30.5996C72.4355 30.515 72.4355 30.3294 72.4355 30.043C72.4421 29.7565 72.4453 29.4245 72.4453 29.0469C72.4518 28.6693 72.4551 28.2982 72.4551 27.9336C72.4551 27.569 72.4551 27.263 72.4551 27.0156C72.4551 26.7617 72.4518 26.6283 72.4453 26.6152C72.263 26.1855 72.0677 25.7591 71.8594 25.3359C71.6576 24.9128 71.4557 24.4928 71.2539 24.0762C70.7721 23.0345 70.2839 21.9993 69.7891 20.9707C69.2943 19.9421 68.7962 18.9134 68.2949 17.8848C68.2363 17.7676 68.207 17.6667 68.207 17.582C68.207 17.4583 68.2591 17.3835 68.3633 17.3574C68.4674 17.3249 68.5618 17.3086 68.6465 17.3086H70.8145C70.9772 17.3086 71.1009 17.39 71.1855 17.5527C71.3223 17.8132 71.446 18.0931 71.5566 18.3926C71.6738 18.6921 71.791 18.9785 71.9082 19.252C72.1947 19.9486 72.4811 20.6452 72.7676 21.3418C73.054 22.0384 73.347 22.735 73.6465 23.4316C73.6595 23.4512 73.6725 23.4772 73.6855 23.5098C73.7051 23.5423 73.7279 23.5586 73.7539 23.5586C73.7865 23.5586 73.8092 23.5423 73.8223 23.5098C73.8418 23.4707 73.8548 23.4414 73.8613 23.4219C74.1543 22.7253 74.4408 22.0286 74.7207 21.332C75.0007 20.6354 75.2806 19.9421 75.5605 19.252C75.6647 19.0046 75.7786 18.7148 75.9023 18.3828C76.0326 18.0508 76.153 17.7741 76.2637 17.5527C76.3548 17.39 76.4785 17.3086 76.6348 17.3086H78.793C78.8841 17.3086 78.9818 17.3249 79.0859 17.3574C79.1901 17.3835 79.2422 17.4583 79.2422 17.582C79.2422 17.6732 79.2129 17.7773 79.1543 17.8945C78.627 18.9753 78.0964 20.0527 77.5625 21.127C77.0352 22.1947 76.5111 23.2721 75.9902 24.3594C75.8079 24.7305 75.6257 25.1048 75.4434 25.4824C75.2611 25.8535 75.0853 26.2311 74.916 26.6152L74.9062 26.6641C74.9062 27.3151 74.9095 27.9694 74.916 28.627C74.9225 29.2845 74.9258 29.9421 74.9258 30.5996C74.9258 30.8665 74.7923 31 74.5254 31H72.8359C72.569 31 72.4355 30.8665 72.4355 30.5996ZM80.8242 17.7188C80.8242 17.4453 80.9577 17.3086 81.2246 17.3086H85.1797C85.7526 17.3086 86.3385 17.3574 86.9375 17.4551C87.543 17.5527 88.0996 17.7285 88.6074 17.9824C89.1217 18.2298 89.5352 18.5814 89.8477 19.0371C90.1667 19.4863 90.3262 20.0625 90.3262 20.7656C90.3262 21.4036 90.1895 21.9635 89.916 22.4453C89.6491 22.9206 89.2552 23.334 88.7344 23.6855C88.7148 23.6986 88.6921 23.7148 88.666 23.7344C88.64 23.7474 88.627 23.7702 88.627 23.8027C88.627 23.8288 88.64 23.8516 88.666 23.8711C88.6986 23.8906 88.7246 23.9069 88.7441 23.9199C89.4082 24.252 89.9648 24.6621 90.4141 25.1504C90.8633 25.6387 91.0879 26.2799 91.0879 27.0742C91.0879 27.8229 90.9316 28.4512 90.6191 28.959C90.3066 29.4603 89.89 29.8607 89.3691 30.1602C88.8548 30.4596 88.2819 30.6745 87.6504 30.8047C87.0254 30.9349 86.3971 31 85.7656 31H81.2148C80.9479 31 80.8145 30.8633 80.8145 30.5898C80.8145 30.2253 80.821 29.8607 80.834 29.4961C80.847 29.125 80.8568 28.7572 80.8633 28.3926C80.8828 26.9277 80.8926 25.4629 80.8926 23.998C80.8926 22.6309 80.8828 21.2637 80.8633 19.8965C80.8568 19.5319 80.847 19.1673 80.834 18.8027C80.8275 18.4382 80.8242 18.0768 80.8242 17.7188ZM83.334 23.0312H85.6094C85.9674 23.0312 86.3125 22.9727 86.6445 22.8555C86.9831 22.7318 87.2598 22.5397 87.4746 22.2793C87.6895 22.0189 87.7969 21.6868 87.7969 21.2832C87.7969 20.834 87.6634 20.4954 87.3965 20.2676C87.1296 20.0332 86.804 19.8737 86.4199 19.7891C86.0358 19.7044 85.6647 19.6621 85.3066 19.6621H83.3242C83.3307 20.222 83.334 20.7852 83.334 21.3516C83.334 21.9115 83.334 22.4714 83.334 23.0312ZM83.3242 28.7246H85.707C85.9805 28.7246 86.2799 28.7018 86.6055 28.6562C86.931 28.6107 87.2402 28.526 87.5332 28.4023C87.8327 28.2786 88.0768 28.1061 88.2656 27.8848C88.4609 27.6569 88.5586 27.3672 88.5586 27.0156C88.5586 26.651 88.4512 26.3613 88.2363 26.1465C88.0215 25.9251 87.748 25.7591 87.416 25.6484C87.0905 25.5378 86.752 25.4661 86.4004 25.4336C86.0488 25.3945 85.7396 25.375 85.4727 25.375H83.334C83.334 25.9284 83.334 26.485 83.334 27.0449C83.334 27.6048 83.3307 28.1647 83.3242 28.7246ZM93.0508 17.7188C93.0508 17.4453 93.1842 17.3086 93.4512 17.3086H101.225C101.492 17.3086 101.625 17.4453 101.625 17.7188C101.625 17.9727 101.625 18.2331 101.625 18.5C101.625 18.7604 101.618 19.0176 101.605 19.2715C101.586 19.5319 101.452 19.6621 101.205 19.6621H95.6582C95.5801 19.6621 95.541 19.7012 95.541 19.7793C95.541 20.3066 95.541 20.834 95.541 21.3613C95.5475 21.8822 95.5508 22.4062 95.5508 22.9336C95.5508 23.0117 95.5898 23.0508 95.668 23.0508H100.473C100.74 23.0508 100.873 23.1842 100.873 23.4512V24.7891C100.873 25.056 100.74 25.1895 100.473 25.1895H95.668C95.5898 25.1895 95.5508 25.2285 95.5508 25.3066C95.5508 25.8405 95.5475 26.3776 95.541 26.918C95.541 27.4518 95.541 27.9889 95.541 28.5293C95.541 28.6074 95.5801 28.6465 95.6582 28.6465H101.439C101.687 28.6465 101.82 28.7767 101.84 29.0371C101.853 29.291 101.859 29.5514 101.859 29.8184C101.866 30.0788 101.869 30.3359 101.869 30.5898C101.869 30.8633 101.736 31 101.469 31H93.4414C93.1745 31 93.041 30.8633 93.041 30.5898C93.041 30.2318 93.0443 29.877 93.0508 29.5254C93.0638 29.1673 93.0736 28.8092 93.0801 28.4512C93.0996 26.9538 93.1094 25.4596 93.1094 23.9688C93.1094 22.9206 93.0996 21.8789 93.0801 20.8438C93.0605 19.8021 93.0508 18.7604 93.0508 17.7188ZM107.836 17.3086C108.799 17.3086 109.672 17.4681 110.453 17.7871C111.234 18.0996 111.853 18.5879 112.309 19.252C112.771 19.9095 113.002 20.7624 113.002 21.8105C113.002 22.6504 112.839 23.4089 112.514 24.0859C112.188 24.763 111.667 25.3294 110.951 25.7852C110.906 25.8047 110.883 25.8372 110.883 25.8828C110.883 25.9089 110.967 26.0618 111.137 26.3418C111.312 26.6217 111.531 26.9668 111.791 27.377C112.058 27.7871 112.328 28.2038 112.602 28.627C112.882 29.0501 113.126 29.4245 113.334 29.75C113.542 30.0755 113.676 30.2839 113.734 30.375C113.767 30.4271 113.799 30.4857 113.832 30.5508C113.865 30.6094 113.881 30.6745 113.881 30.7461C113.881 30.8633 113.819 30.9349 113.695 30.9609C113.578 30.987 113.48 31 113.402 31H111.459C111.329 31 111.218 30.9414 111.127 30.8242C110.925 30.5638 110.736 30.2904 110.561 30.0039C110.385 29.7109 110.206 29.4277 110.023 29.1543C109.737 28.7116 109.447 28.2721 109.154 27.8359C108.861 27.3932 108.575 26.9473 108.295 26.498C108.269 26.4525 108.233 26.4297 108.188 26.4297H106.439C106.361 26.4297 106.322 26.4688 106.322 26.5469C106.322 26.9961 106.319 27.4486 106.312 27.9043C106.312 28.3535 106.309 28.8027 106.303 29.252C106.303 29.4408 106.306 29.6719 106.312 29.9453C106.326 30.2122 106.319 30.4336 106.293 30.6094C106.273 30.7396 106.238 30.8372 106.186 30.9023C106.14 30.9674 106.042 31 105.893 31H104.203C103.936 31 103.803 30.8633 103.803 30.5898C103.803 30.2383 103.809 29.8867 103.822 29.5352C103.835 29.1771 103.845 28.819 103.852 28.4609C103.871 26.9766 103.881 25.4889 103.881 23.998C103.881 22.5853 103.871 21.166 103.852 19.7402C103.845 19.4017 103.835 19.0664 103.822 18.7344C103.816 18.3958 103.812 18.0573 103.812 17.7188C103.812 17.4453 103.946 17.3086 104.213 17.3086H107.836ZM106.322 24.0859H108.295C108.939 24.0859 109.464 23.8841 109.867 23.4805C110.271 23.0768 110.473 22.5495 110.473 21.8984C110.473 21.2279 110.284 20.6875 109.906 20.2773C109.529 19.8672 109.001 19.6621 108.324 19.6621H106.312C106.319 20.3978 106.322 21.1367 106.322 21.8789C106.322 22.6146 106.322 23.3503 106.322 24.0859ZM121.098 31C120.831 31 120.697 30.8633 120.697 30.5898C120.697 30.2448 120.704 29.903 120.717 29.5645C120.73 29.2194 120.74 28.8776 120.746 28.5391C120.759 27.7839 120.769 27.0319 120.775 26.2832C120.788 25.528 120.795 24.776 120.795 24.0273C120.795 23.3047 120.792 22.582 120.785 21.8594C120.779 21.1367 120.769 20.4141 120.756 19.6914C120.749 19.3659 120.74 19.0371 120.727 18.7051C120.714 18.373 120.707 18.0443 120.707 17.7188C120.707 17.4453 120.84 17.3086 121.107 17.3086H124.77C125.863 17.3086 126.892 17.4648 127.855 17.7773C128.826 18.0898 129.669 18.5879 130.385 19.2715C131.101 19.9486 131.628 20.8405 131.967 21.9473C132.208 22.7415 132.328 23.5488 132.328 24.3691C132.328 25.7038 132.025 26.8691 131.42 27.8652C130.821 28.8548 130.001 29.6263 128.959 30.1797C127.924 30.7266 126.752 31 125.443 31H121.098ZM123.207 28.6465H125.014C126.465 28.6465 127.624 28.2656 128.49 27.5039C129.363 26.7357 129.799 25.6061 129.799 24.1152C129.799 23.2689 129.62 22.5104 129.262 21.8398C128.904 21.1628 128.402 20.6289 127.758 20.2383C127.113 19.8477 126.358 19.6523 125.492 19.6523H123.217C123.223 20.3424 123.227 21.0358 123.227 21.7324C123.233 22.429 123.236 23.1257 123.236 23.8223C123.236 25.4238 123.227 27.0319 123.207 28.6465ZM134.32 17.7188C134.32 17.4453 134.454 17.3086 134.721 17.3086H142.494C142.761 17.3086 142.895 17.4453 142.895 17.7188C142.895 17.9727 142.895 18.2331 142.895 18.5C142.895 18.7604 142.888 19.0176 142.875 19.2715C142.855 19.5319 142.722 19.6621 142.475 19.6621H136.928C136.85 19.6621 136.811 19.7012 136.811 19.7793C136.811 20.3066 136.811 20.834 136.811 21.3613C136.817 21.8822 136.82 22.4062 136.82 22.9336C136.82 23.0117 136.859 23.0508 136.938 23.0508H141.742C142.009 23.0508 142.143 23.1842 142.143 23.4512V24.7891C142.143 25.056 142.009 25.1895 141.742 25.1895H136.938C136.859 25.1895 136.82 25.2285 136.82 25.3066C136.82 25.8405 136.817 26.3776 136.811 26.918C136.811 27.4518 136.811 27.9889 136.811 28.5293C136.811 28.6074 136.85 28.6465 136.928 28.6465H142.709C142.956 28.6465 143.09 28.7767 143.109 29.0371C143.122 29.291 143.129 29.5514 143.129 29.8184C143.135 30.0788 143.139 30.3359 143.139 30.5898C143.139 30.8633 143.005 31 142.738 31H134.711C134.444 31 134.311 30.8633 134.311 30.5898C134.311 30.2318 134.314 29.877 134.32 29.5254C134.333 29.1673 134.343 28.8092 134.35 28.4512C134.369 26.9538 134.379 25.4596 134.379 23.9688C134.379 22.9206 134.369 21.8789 134.35 20.8438C134.33 19.8021 134.32 18.7604 134.32 17.7188ZM145.082 17.7188C145.082 17.4453 145.215 17.3086 145.482 17.3086H153.52C153.786 17.3086 153.92 17.4453 153.92 17.7188C153.92 17.9661 153.92 18.2266 153.92 18.5C153.926 18.7669 153.92 19.0241 153.9 19.2715C153.881 19.5319 153.747 19.6621 153.5 19.6621H147.689C147.611 19.6621 147.572 19.7012 147.572 19.7793C147.572 20.3197 147.572 20.8633 147.572 21.4102C147.579 21.9505 147.582 22.4909 147.582 23.0312C147.582 23.1094 147.621 23.1484 147.699 23.1484H152.65C152.917 23.1484 153.051 23.2819 153.051 23.5488V25.082C153.051 25.349 152.917 25.4824 152.65 25.4824H147.699C147.621 25.4824 147.582 25.5215 147.582 25.5996C147.582 26.166 147.582 26.7324 147.582 27.2988C147.582 27.8587 147.579 28.4219 147.572 28.9883C147.566 29.2552 147.562 29.5254 147.562 29.7988C147.569 30.0658 147.566 30.3327 147.553 30.5996C147.533 30.8665 147.4 31 147.152 31H145.473C145.206 31 145.072 30.8633 145.072 30.5898C145.072 30.2318 145.076 29.877 145.082 29.5254C145.095 29.1673 145.105 28.8092 145.111 28.4512C145.131 26.9538 145.141 25.4596 145.141 23.9688C145.141 22.9206 145.131 21.8789 145.111 20.8438C145.092 19.8021 145.082 18.7604 145.082 17.7188ZM155.746 17.7188C155.746 17.4453 155.88 17.3086 156.146 17.3086H163.92C164.187 17.3086 164.32 17.4453 164.32 17.7188C164.32 17.9727 164.32 18.2331 164.32 18.5C164.32 18.7604 164.314 19.0176 164.301 19.2715C164.281 19.5319 164.148 19.6621 163.9 19.6621H158.354C158.275 19.6621 158.236 19.7012 158.236 19.7793C158.236 20.3066 158.236 20.834 158.236 21.3613C158.243 21.8822 158.246 22.4062 158.246 22.9336C158.246 23.0117 158.285 23.0508 158.363 23.0508H163.168C163.435 23.0508 163.568 23.1842 163.568 23.4512V24.7891C163.568 25.056 163.435 25.1895 163.168 25.1895H158.363C158.285 25.1895 158.246 25.2285 158.246 25.3066C158.246 25.8405 158.243 26.3776 158.236 26.918C158.236 27.4518 158.236 27.9889 158.236 28.5293C158.236 28.6074 158.275 28.6465 158.354 28.6465H164.135C164.382 28.6465 164.516 28.7767 164.535 29.0371C164.548 29.291 164.555 29.5514 164.555 29.8184C164.561 30.0788 164.564 30.3359 164.564 30.5898C164.564 30.8633 164.431 31 164.164 31H156.137C155.87 31 155.736 30.8633 155.736 30.5898C155.736 30.2318 155.74 29.877 155.746 29.5254C155.759 29.1673 155.769 28.8092 155.775 28.4512C155.795 26.9538 155.805 25.4596 155.805 23.9688C155.805 22.9206 155.795 21.8789 155.775 20.8438C155.756 19.8021 155.746 18.7604 155.746 17.7188ZM178.402 31.3906C178.363 31.3906 178.168 31.2311 177.816 30.9121C177.471 30.5866 177.025 30.1634 176.479 29.6426C175.932 29.1152 175.333 28.5391 174.682 27.9141C174.031 27.2826 173.383 26.6543 172.738 26.0293C172.094 25.3978 171.498 24.8216 170.951 24.3008C170.411 23.7734 169.971 23.3503 169.633 23.0312C169.301 22.7122 169.125 22.5527 169.105 22.5527C169.073 22.5527 169.053 22.5788 169.047 22.6309C169.04 22.6764 169.037 22.709 169.037 22.7285C169.037 23.321 169.037 23.9134 169.037 24.5059C169.044 25.0918 169.047 25.681 169.047 26.2734C169.047 26.7682 169.047 27.263 169.047 27.7578C169.047 28.2461 169.044 28.7409 169.037 29.2422C169.037 29.4505 169.04 29.6784 169.047 29.9258C169.06 30.1732 169.053 30.401 169.027 30.6094C169.014 30.7396 168.982 30.8372 168.93 30.9023C168.878 30.9674 168.777 31 168.627 31H166.898C166.632 31 166.498 30.8633 166.498 30.5898C166.498 30.2188 166.505 29.8477 166.518 29.4766C166.537 29.1055 166.55 28.7344 166.557 28.3633C166.57 27.6211 166.579 26.8789 166.586 26.1367C166.592 25.3945 166.596 24.6523 166.596 23.9102C166.596 23.1289 166.592 22.3477 166.586 21.5664C166.579 20.7852 166.566 20.0039 166.547 19.2227C166.54 18.8516 166.527 18.4805 166.508 18.1094C166.495 17.7383 166.488 17.3672 166.488 16.9961C166.488 16.957 166.508 16.9375 166.547 16.9375C166.586 16.9375 166.618 16.9505 166.645 16.9766C168.194 18.4154 169.711 19.89 171.195 21.4004C172.68 22.9043 174.184 24.3887 175.707 25.8535C175.72 25.8665 175.74 25.8861 175.766 25.9121C175.792 25.9316 175.818 25.9414 175.844 25.9414C175.883 25.9414 175.902 25.9186 175.902 25.873C175.909 25.821 175.912 25.7852 175.912 25.7656C175.912 25.1602 175.909 24.5579 175.902 23.959C175.902 23.3535 175.902 22.748 175.902 22.1426C175.902 21.6217 175.902 21.1042 175.902 20.5898C175.902 20.069 175.906 19.5514 175.912 19.0371C175.912 18.8223 175.909 18.6009 175.902 18.373C175.896 18.1452 175.902 17.9238 175.922 17.709C175.935 17.5723 175.967 17.4714 176.02 17.4062C176.072 17.3411 176.173 17.3086 176.322 17.3086H178.002C178.269 17.3086 178.402 17.4453 178.402 17.7188C178.402 18.0573 178.396 18.3958 178.383 18.7344C178.37 19.0729 178.36 19.4147 178.354 19.7598C178.34 20.4694 178.331 21.1855 178.324 21.9082C178.318 22.6243 178.314 23.3405 178.314 24.0566C178.314 26.4915 178.354 28.9264 178.432 31.3613L178.402 31.3906ZM187.68 18.0215C187.68 18.054 187.657 18.1745 187.611 18.3828C187.566 18.5911 187.517 18.8027 187.465 19.0176C187.419 19.2259 187.387 19.3529 187.367 19.3984C187.341 19.4896 187.305 19.571 187.26 19.6426C187.214 19.7077 187.136 19.7402 187.025 19.7402C186.954 19.7402 186.876 19.724 186.791 19.6914C186.544 19.6068 186.293 19.5384 186.039 19.4863C185.792 19.4277 185.535 19.3984 185.268 19.3984C184.942 19.3984 184.617 19.444 184.291 19.5352C183.972 19.6263 183.705 19.7826 183.49 20.0039C183.275 20.2253 183.168 20.5312 183.168 20.9219C183.168 21.4102 183.292 21.8138 183.539 22.1328C183.786 22.4453 184.102 22.7155 184.486 22.9434C184.877 23.1647 185.29 23.3861 185.727 23.6074C186.163 23.8223 186.573 24.0794 186.957 24.3789C187.348 24.6719 187.667 25.043 187.914 25.4922C188.161 25.9414 188.285 26.5176 188.285 27.2207C188.285 28.1842 188.057 28.9525 187.602 29.5254C187.146 30.0983 186.547 30.5117 185.805 30.7656C185.062 31.0195 184.265 31.1465 183.412 31.1465C183.158 31.1465 182.855 31.1302 182.504 31.0977C182.159 31.0716 181.814 31.0293 181.469 30.9707C181.13 30.9056 180.844 30.8275 180.609 30.7363C180.531 30.7038 180.466 30.6647 180.414 30.6191C180.362 30.5736 180.336 30.502 180.336 30.4043C180.336 30.3652 180.362 30.2383 180.414 30.0234C180.466 29.8021 180.521 29.5807 180.58 29.3594C180.639 29.138 180.674 29.0013 180.688 28.9492C180.72 28.8581 180.756 28.7832 180.795 28.7246C180.84 28.666 180.919 28.6367 181.029 28.6367C181.094 28.6367 181.156 28.6465 181.215 28.666C181.534 28.7572 181.856 28.8353 182.182 28.9004C182.514 28.9655 182.846 28.998 183.178 28.998C183.588 28.998 183.982 28.9427 184.359 28.832C184.743 28.7148 185.056 28.5195 185.297 28.2461C185.544 27.9727 185.668 27.5983 185.668 27.123C185.668 26.5827 185.541 26.1497 185.287 25.8242C185.033 25.4922 184.708 25.2155 184.311 24.9941C183.913 24.7663 183.49 24.5514 183.041 24.3496C182.598 24.1413 182.178 23.9004 181.781 23.627C181.384 23.3535 181.059 22.9987 180.805 22.5625C180.551 22.1263 180.424 21.5599 180.424 20.8633C180.424 19.9974 180.629 19.3008 181.039 18.7734C181.449 18.2396 181.99 17.849 182.66 17.6016C183.331 17.3542 184.05 17.2305 184.818 17.2305C185.202 17.2305 185.645 17.2663 186.146 17.3379C186.648 17.4095 187.074 17.5234 187.426 17.6797C187.504 17.7122 187.566 17.7546 187.611 17.8066C187.657 17.8522 187.68 17.9238 187.68 18.0215ZM190.199 17.7188C190.199 17.4453 190.333 17.3086 190.6 17.3086H198.373C198.64 17.3086 198.773 17.4453 198.773 17.7188C198.773 17.9727 198.773 18.2331 198.773 18.5C198.773 18.7604 198.767 19.0176 198.754 19.2715C198.734 19.5319 198.601 19.6621 198.354 19.6621H192.807C192.729 19.6621 192.689 19.7012 192.689 19.7793C192.689 20.3066 192.689 20.834 192.689 21.3613C192.696 21.8822 192.699 22.4062 192.699 22.9336C192.699 23.0117 192.738 23.0508 192.816 23.0508H197.621C197.888 23.0508 198.021 23.1842 198.021 23.4512V24.7891C198.021 25.056 197.888 25.1895 197.621 25.1895H192.816C192.738 25.1895 192.699 25.2285 192.699 25.3066C192.699 25.8405 192.696 26.3776 192.689 26.918C192.689 27.4518 192.689 27.9889 192.689 28.5293C192.689 28.6074 192.729 28.6465 192.807 28.6465H198.588C198.835 28.6465 198.969 28.7767 198.988 29.0371C199.001 29.291 199.008 29.5514 199.008 29.8184C199.014 30.0788 199.018 30.3359 199.018 30.5898C199.018 30.8633 198.884 31 198.617 31H190.59C190.323 31 190.189 30.8633 190.189 30.5898C190.189 30.2318 190.193 29.877 190.199 29.5254C190.212 29.1673 190.222 28.8092 190.229 28.4512C190.248 26.9538 190.258 25.4596 190.258 23.9688C190.258 22.9206 190.248 21.8789 190.229 20.8438C190.209 19.8021 190.199 18.7604 190.199 17.7188ZM205.961 17.7188C205.961 17.4453 206.094 17.3086 206.361 17.3086H208.031C208.298 17.3086 208.432 17.4421 208.432 17.709C208.432 18.8743 208.435 20.0397 208.441 21.2051C208.454 22.3704 208.461 23.5358 208.461 24.7012C208.461 25.3327 208.458 25.9707 208.451 26.6152C208.451 27.2533 208.451 27.8913 208.451 28.5293C208.451 28.6074 208.49 28.6465 208.568 28.6465H213.93C214.19 28.6465 214.324 28.7767 214.33 29.0371L214.359 30.5898C214.372 30.8633 214.239 31 213.959 31H206.352C206.085 31 205.951 30.8633 205.951 30.5898C205.951 30.2318 205.954 29.877 205.961 29.5254C205.974 29.1673 205.984 28.8092 205.99 28.4512C206.01 26.9538 206.02 25.4596 206.02 23.9688C206.02 22.9206 206.01 21.8789 205.99 20.8438C205.971 19.8021 205.961 18.7604 205.961 17.7188ZM216.312 17.7188C216.312 17.4453 216.446 17.3086 216.713 17.3086H224.486C224.753 17.3086 224.887 17.4453 224.887 17.7188C224.887 17.9727 224.887 18.2331 224.887 18.5C224.887 18.7604 224.88 19.0176 224.867 19.2715C224.848 19.5319 224.714 19.6621 224.467 19.6621H218.92C218.842 19.6621 218.803 19.7012 218.803 19.7793C218.803 20.3066 218.803 20.834 218.803 21.3613C218.809 21.8822 218.812 22.4062 218.812 22.9336C218.812 23.0117 218.852 23.0508 218.93 23.0508H223.734C224.001 23.0508 224.135 23.1842 224.135 23.4512V24.7891C224.135 25.056 224.001 25.1895 223.734 25.1895H218.93C218.852 25.1895 218.812 25.2285 218.812 25.3066C218.812 25.8405 218.809 26.3776 218.803 26.918C218.803 27.4518 218.803 27.9889 218.803 28.5293C218.803 28.6074 218.842 28.6465 218.92 28.6465H224.701C224.949 28.6465 225.082 28.7767 225.102 29.0371C225.115 29.291 225.121 29.5514 225.121 29.8184C225.128 30.0788 225.131 30.3359 225.131 30.5898C225.131 30.8633 224.997 31 224.73 31H216.703C216.436 31 216.303 30.8633 216.303 30.5898C216.303 30.2318 216.306 29.877 216.312 29.5254C216.326 29.1673 216.335 28.8092 216.342 28.4512C216.361 26.9538 216.371 25.4596 216.371 23.9688C216.371 22.9206 216.361 21.8789 216.342 20.8438C216.322 19.8021 216.312 18.7604 216.312 17.7188ZM226.625 31C226.534 31 226.436 30.987 226.332 30.9609C226.228 30.9284 226.176 30.8503 226.176 30.7266C226.176 30.6745 226.186 30.6224 226.205 30.5703C226.225 30.5182 226.244 30.4694 226.264 30.4238C226.837 29.1868 227.403 27.9499 227.963 26.7129C228.529 25.4759 229.086 24.2324 229.633 22.9824C230.082 21.9538 230.528 20.9251 230.971 19.8965C231.413 18.8613 231.869 17.8359 232.338 16.8203C232.357 16.7812 232.39 16.7617 232.436 16.7617C232.481 16.7617 232.514 16.7812 232.533 16.8203C233.002 17.8359 233.458 18.8613 233.9 19.8965C234.343 20.9251 234.789 21.9538 235.238 22.9824C235.785 24.2324 236.339 25.4759 236.898 26.7129C237.465 27.9499 238.035 29.1868 238.607 30.4238C238.627 30.4694 238.646 30.5182 238.666 30.5703C238.686 30.6224 238.695 30.6745 238.695 30.7266C238.695 30.8503 238.643 30.9284 238.539 30.9609C238.435 30.987 238.337 31 238.246 31H236.273C236.111 31 235.987 30.9186 235.902 30.7559C235.85 30.6517 235.801 30.541 235.756 30.4238C235.71 30.3066 235.665 30.196 235.619 30.0918C235.476 29.7663 235.336 29.4342 235.199 29.0957C235.069 28.7572 234.929 28.4251 234.779 28.0996C234.76 28.0475 234.724 28.0215 234.672 28.0215H229.838C229.786 28.0215 229.75 28.0475 229.73 28.0996C229.574 28.4251 229.424 28.7572 229.281 29.0957C229.145 29.4342 229.001 29.7695 228.852 30.1016C228.806 30.2057 228.757 30.3164 228.705 30.4336C228.66 30.5508 228.607 30.6615 228.549 30.7656C228.464 30.9219 228.344 31 228.188 31H226.625ZM230.648 25.9805H233.9C233.64 25.3294 233.376 24.6816 233.109 24.0371C232.842 23.3861 232.576 22.735 232.309 22.084C232.035 22.735 231.758 23.3861 231.479 24.0371C231.205 24.6816 230.928 25.3294 230.648 25.9805ZM244.281 17.3086C245.245 17.3086 246.117 17.4681 246.898 17.7871C247.68 18.0996 248.298 18.5879 248.754 19.252C249.216 19.9095 249.447 20.7624 249.447 21.8105C249.447 22.6504 249.285 23.4089 248.959 24.0859C248.633 24.763 248.113 25.3294 247.396 25.7852C247.351 25.8047 247.328 25.8372 247.328 25.8828C247.328 25.9089 247.413 26.0618 247.582 26.3418C247.758 26.6217 247.976 26.9668 248.236 27.377C248.503 27.7871 248.773 28.2038 249.047 28.627C249.327 29.0501 249.571 29.4245 249.779 29.75C249.988 30.0755 250.121 30.2839 250.18 30.375C250.212 30.4271 250.245 30.4857 250.277 30.5508C250.31 30.6094 250.326 30.6745 250.326 30.7461C250.326 30.8633 250.264 30.9349 250.141 30.9609C250.023 30.987 249.926 31 249.848 31H247.904C247.774 31 247.663 30.9414 247.572 30.8242C247.37 30.5638 247.182 30.2904 247.006 30.0039C246.83 29.7109 246.651 29.4277 246.469 29.1543C246.182 28.7116 245.893 28.2721 245.6 27.8359C245.307 27.3932 245.02 26.9473 244.74 26.498C244.714 26.4525 244.678 26.4297 244.633 26.4297H242.885C242.807 26.4297 242.768 26.4688 242.768 26.5469C242.768 26.9961 242.764 27.4486 242.758 27.9043C242.758 28.3535 242.755 28.8027 242.748 29.252C242.748 29.4408 242.751 29.6719 242.758 29.9453C242.771 30.2122 242.764 30.4336 242.738 30.6094C242.719 30.7396 242.683 30.8372 242.631 30.9023C242.585 30.9674 242.488 31 242.338 31H240.648C240.382 31 240.248 30.8633 240.248 30.5898C240.248 30.2383 240.255 29.8867 240.268 29.5352C240.281 29.1771 240.29 28.819 240.297 28.4609C240.316 26.9766 240.326 25.4889 240.326 23.998C240.326 22.5853 240.316 21.166 240.297 19.7402C240.29 19.4017 240.281 19.0664 240.268 18.7344C240.261 18.3958 240.258 18.0573 240.258 17.7188C240.258 17.4453 240.391 17.3086 240.658 17.3086H244.281ZM242.768 24.0859H244.74C245.385 24.0859 245.909 23.8841 246.312 23.4805C246.716 23.0768 246.918 22.5495 246.918 21.8984C246.918 21.2279 246.729 20.6875 246.352 20.2773C245.974 19.8672 245.447 19.6621 244.77 19.6621H242.758C242.764 20.3978 242.768 21.1367 242.768 21.8789C242.768 22.6146 242.768 23.3503 242.768 24.0859ZM264.047 31.3906C264.008 31.3906 263.812 31.2311 263.461 30.9121C263.116 30.5866 262.67 30.1634 262.123 29.6426C261.576 29.1152 260.977 28.5391 260.326 27.9141C259.675 27.2826 259.027 26.6543 258.383 26.0293C257.738 25.3978 257.143 24.8216 256.596 24.3008C256.055 23.7734 255.616 23.3503 255.277 23.0312C254.945 22.7122 254.77 22.5527 254.75 22.5527C254.717 22.5527 254.698 22.5788 254.691 22.6309C254.685 22.6764 254.682 22.709 254.682 22.7285C254.682 23.321 254.682 23.9134 254.682 24.5059C254.688 25.0918 254.691 25.681 254.691 26.2734C254.691 26.7682 254.691 27.263 254.691 27.7578C254.691 28.2461 254.688 28.7409 254.682 29.2422C254.682 29.4505 254.685 29.6784 254.691 29.9258C254.704 30.1732 254.698 30.401 254.672 30.6094C254.659 30.7396 254.626 30.8372 254.574 30.9023C254.522 30.9674 254.421 31 254.271 31H252.543C252.276 31 252.143 30.8633 252.143 30.5898C252.143 30.2188 252.149 29.8477 252.162 29.4766C252.182 29.1055 252.195 28.7344 252.201 28.3633C252.214 27.6211 252.224 26.8789 252.23 26.1367C252.237 25.3945 252.24 24.6523 252.24 23.9102C252.24 23.1289 252.237 22.3477 252.23 21.5664C252.224 20.7852 252.211 20.0039 252.191 19.2227C252.185 18.8516 252.172 18.4805 252.152 18.1094C252.139 17.7383 252.133 17.3672 252.133 16.9961C252.133 16.957 252.152 16.9375 252.191 16.9375C252.23 16.9375 252.263 16.9505 252.289 16.9766C253.839 18.4154 255.355 19.89 256.84 21.4004C258.324 22.9043 259.828 24.3887 261.352 25.8535C261.365 25.8665 261.384 25.8861 261.41 25.9121C261.436 25.9316 261.462 25.9414 261.488 25.9414C261.527 25.9414 261.547 25.9186 261.547 25.873C261.553 25.821 261.557 25.7852 261.557 25.7656C261.557 25.1602 261.553 24.5579 261.547 23.959C261.547 23.3535 261.547 22.748 261.547 22.1426C261.547 21.6217 261.547 21.1042 261.547 20.5898C261.547 20.069 261.55 19.5514 261.557 19.0371C261.557 18.8223 261.553 18.6009 261.547 18.373C261.54 18.1452 261.547 17.9238 261.566 17.709C261.579 17.5723 261.612 17.4714 261.664 17.4062C261.716 17.3411 261.817 17.3086 261.967 17.3086H263.646C263.913 17.3086 264.047 17.4453 264.047 17.7188C264.047 18.0573 264.04 18.3958 264.027 18.7344C264.014 19.0729 264.005 19.4147 263.998 19.7598C263.985 20.4694 263.975 21.1855 263.969 21.9082C263.962 22.6243 263.959 23.3405 263.959 24.0566C263.959 26.4915 263.998 28.9264 264.076 31.3613L264.047 31.3906ZM266.4 17.709C266.4 17.4421 266.534 17.3086 266.801 17.3086H268.49C268.757 17.3086 268.891 17.4421 268.891 17.709C268.891 18.7832 268.887 19.8574 268.881 20.9316C268.874 22.0059 268.871 23.0801 268.871 24.1543C268.871 25.2285 268.874 26.3027 268.881 27.377C268.887 28.4512 268.891 29.5254 268.891 30.5996C268.891 30.8665 268.757 31 268.49 31H266.801C266.534 31 266.4 30.8665 266.4 30.5996C266.4 29.5254 266.404 28.4512 266.41 27.377C266.417 26.3027 266.42 25.2285 266.42 24.1543C266.42 23.0801 266.417 22.0059 266.41 20.9316C266.404 19.8574 266.4 18.7832 266.4 17.709ZM283.148 31.3906C283.109 31.3906 282.914 31.2311 282.562 30.9121C282.217 30.5866 281.771 30.1634 281.225 29.6426C280.678 29.1152 280.079 28.5391 279.428 27.9141C278.777 27.2826 278.129 26.6543 277.484 26.0293C276.84 25.3978 276.244 24.8216 275.697 24.3008C275.157 23.7734 274.717 23.3503 274.379 23.0312C274.047 22.7122 273.871 22.5527 273.852 22.5527C273.819 22.5527 273.799 22.5788 273.793 22.6309C273.786 22.6764 273.783 22.709 273.783 22.7285C273.783 23.321 273.783 23.9134 273.783 24.5059C273.79 25.0918 273.793 25.681 273.793 26.2734C273.793 26.7682 273.793 27.263 273.793 27.7578C273.793 28.2461 273.79 28.7409 273.783 29.2422C273.783 29.4505 273.786 29.6784 273.793 29.9258C273.806 30.1732 273.799 30.401 273.773 30.6094C273.76 30.7396 273.728 30.8372 273.676 30.9023C273.624 30.9674 273.523 31 273.373 31H271.645C271.378 31 271.244 30.8633 271.244 30.5898C271.244 30.2188 271.251 29.8477 271.264 29.4766C271.283 29.1055 271.296 28.7344 271.303 28.3633C271.316 27.6211 271.326 26.8789 271.332 26.1367C271.339 25.3945 271.342 24.6523 271.342 23.9102C271.342 23.1289 271.339 22.3477 271.332 21.5664C271.326 20.7852 271.312 20.0039 271.293 19.2227C271.286 18.8516 271.273 18.4805 271.254 18.1094C271.241 17.7383 271.234 17.3672 271.234 16.9961C271.234 16.957 271.254 16.9375 271.293 16.9375C271.332 16.9375 271.365 16.9505 271.391 16.9766C272.94 18.4154 274.457 19.89 275.941 21.4004C277.426 22.9043 278.93 24.3887 280.453 25.8535C280.466 25.8665 280.486 25.8861 280.512 25.9121C280.538 25.9316 280.564 25.9414 280.59 25.9414C280.629 25.9414 280.648 25.9186 280.648 25.873C280.655 25.821 280.658 25.7852 280.658 25.7656C280.658 25.1602 280.655 24.5579 280.648 23.959C280.648 23.3535 280.648 22.748 280.648 22.1426C280.648 21.6217 280.648 21.1042 280.648 20.5898C280.648 20.069 280.652 19.5514 280.658 19.0371C280.658 18.8223 280.655 18.6009 280.648 18.373C280.642 18.1452 280.648 17.9238 280.668 17.709C280.681 17.5723 280.714 17.4714 280.766 17.4062C280.818 17.3411 280.919 17.3086 281.068 17.3086H282.748C283.015 17.3086 283.148 17.4453 283.148 17.7188C283.148 18.0573 283.142 18.3958 283.129 18.7344C283.116 19.0729 283.106 19.4147 283.1 19.7598C283.087 20.4694 283.077 21.1855 283.07 21.9082C283.064 22.6243 283.061 23.3405 283.061 24.0566C283.061 26.4915 283.1 28.9264 283.178 31.3613L283.148 31.3906ZM296.947 29.5156C296.947 29.6393 296.895 29.7435 296.791 29.8281C296.465 30.0885 296.029 30.3197 295.482 30.5215C294.942 30.7168 294.385 30.8698 293.812 30.9805C293.24 31.0911 292.745 31.1465 292.328 31.1465C290.98 31.1465 289.763 30.8893 288.676 30.375C287.589 29.8542 286.726 29.099 286.088 28.1094C285.45 27.1198 285.131 25.9186 285.131 24.5059C285.131 23.041 285.414 21.7585 285.98 20.6582C286.553 19.5579 287.374 18.7018 288.441 18.0898C289.509 17.4779 290.785 17.1719 292.27 17.1719C292.862 17.1719 293.516 17.2337 294.232 17.3574C294.955 17.4811 295.58 17.6797 296.107 17.9531C296.264 18.0312 296.342 18.1354 296.342 18.2656C296.342 18.3047 296.306 18.4479 296.234 18.6953C296.163 18.9427 296.088 19.1934 296.01 19.4473C295.932 19.6947 295.88 19.8509 295.854 19.916C295.827 20.0007 295.792 20.0755 295.746 20.1406C295.701 20.2057 295.626 20.2383 295.521 20.2383C295.476 20.2383 295.434 20.2318 295.395 20.2188C295.355 20.2057 295.316 20.1927 295.277 20.1797C294.815 19.9909 294.35 19.8509 293.881 19.7598C293.412 19.6621 292.927 19.6133 292.426 19.6133C290.98 19.6133 289.825 20.0299 288.959 20.8633C288.1 21.6901 287.67 22.8327 287.67 24.291C287.67 25.6582 288.074 26.7357 288.881 27.5234C289.695 28.3112 290.779 28.7051 292.133 28.7051C292.556 28.7051 292.999 28.6628 293.461 28.5781C293.923 28.4935 294.346 28.36 294.73 28.1777C294.776 28.1582 294.799 28.1224 294.799 28.0703C294.799 27.7057 294.796 27.3379 294.789 26.9668C294.783 26.5957 294.779 26.2279 294.779 25.8633C294.779 25.7852 294.737 25.7461 294.652 25.7461H292.367C292.1 25.7461 291.967 25.6126 291.967 25.3457V24.3887C291.967 24.1217 292.1 23.9883 292.367 23.9883H296.479C296.745 23.9883 296.879 24.1217 296.879 24.3887C296.879 25.2415 296.889 26.0977 296.908 26.957C296.934 27.8099 296.947 28.6628 296.947 29.5156Z" fill="url(#paint0_linear_155_530)"/>
<path d="M19.8763 0L0.329956 8.72727V21.8182C0.329956 33.9273 8.66975 45.2509 19.8763 48C31.0829 45.2509 39.4227 33.9273 39.4227 21.8182V8.72727L19.8763 0Z" fill="#06B6D4"/>
<path d="M26.9171 28.4156L19.6793 13.2476L14.9589 22.0796L12.2841 29.1836L20.3086 29.5676L26.9171 28.4156Z" fill="#1C2533" stroke="black"/>
<path d="M10.2385 30.3342L19.6792 10.3662L29.1199 30.3342H10.2385ZM13.2209 28.2323H26.1375L19.6792 14.57L13.2209 28.2323ZM18.821 27.1814H20.5374V25.0795H22.2539V22.9776H20.5374V20.8757H18.821V22.9776H17.1045V25.0795H18.821V27.1814Z" fill="#1C2533"/>
<defs>
<linearGradient id="paint0_linear_155_530" x1="63.7108" y1="24" x2="264.191" y2="24" gradientUnits="userSpaceOnUse">
<stop stop-color="#06B6D4"/>
<stop offset="1" stop-color="#3B82F6"/>
</linearGradient>
</defs>
</svg>
